<svg width="2932" height="493" viewBox="0 0 2932 493" fill="none" xmlns="http://www.w3.org/2000/svg">
<path d="M0.611328 389L118.867 112.81H174.883L293.139 389H228.565L204.058 330.65H89.6923L65.1853 389H0.611328ZM146.875 194.111L111.865 276.968H181.496L146.875 194.111ZM459.932 393.668C420.513 393.668 386.8 379.794 358.792 352.045C331.043 324.037 317.169 290.324 317.169 250.905C317.169 211.486 331.043 177.903 358.792 150.154C386.8 122.146 420.513 108.142 459.932 108.142C488.199 108.142 513.744 115.014 536.565 128.759C559.386 142.504 576.891 160.787 589.08 183.608L534.62 213.172C518.023 183.089 493.127 168.048 459.932 168.048C437.629 168.048 418.568 176.217 402.749 192.555C387.189 208.893 379.409 228.343 379.409 250.905C379.409 273.467 387.189 292.917 402.749 309.255C418.568 325.593 437.629 333.762 459.932 333.762C493.127 333.762 518.023 318.721 534.62 288.638L589.08 318.202C576.891 341.023 559.386 359.306 536.565 373.051C513.744 386.796 488.199 393.668 459.932 393.668ZM698.371 389V171.938H627.962V112.81H831.798V171.938H760.611V389H698.371ZM893.01 389V112.81H954.861V389H893.01ZM1106.41 309.255C1122.23 325.593 1141.29 333.762 1163.6 333.762C1185.9 333.762 1204.83 325.593 1220.39 309.255C1235.95 292.917 1243.73 273.467 1243.73 250.905C1243.73 228.343 1235.95 208.893 1220.39 192.555C1204.83 176.217 1185.9 168.048 1163.6 168.048C1141.29 168.048 1122.23 176.217 1106.41 192.555C1090.85 208.893 1083.07 228.343 1083.07 250.905C1083.07 273.467 1090.85 292.917 1106.41 309.255ZM1264.35 351.656C1236.6 379.664 1203.02 393.668 1163.6 393.668C1124.18 393.668 1090.46 379.794 1062.46 352.045C1034.71 324.037 1020.83 290.324 1020.83 250.905C1020.83 211.486 1034.71 177.903 1062.46 150.154C1090.46 122.146 1124.18 108.142 1163.6 108.142C1203.02 108.142 1236.6 122.146 1264.35 150.154C1292.36 178.162 1306.36 211.746 1306.36 250.905C1306.36 290.064 1292.36 323.648 1264.35 351.656ZM1622.11 389H1568.82L1434.23 218.229V389H1372.38V112.81H1425.67L1559.87 283.581V112.81H1622.11V389ZM1677.74 389L1800.66 112.81H1824.39L1947.7 389H1916.58L1878.07 303.031H1746.2L1708.08 389H1677.74ZM1811.94 154.433L1758.26 275.412H1866.01L1811.94 154.433ZM2012.65 389V112.81H2099.79C2125.2 112.81 2145.3 119.682 2160.08 133.427C2174.87 147.172 2182.26 163.899 2182.26 183.608C2182.26 210.579 2171.75 230.158 2150.75 242.347C2183.94 253.498 2200.54 275.542 2200.54 308.477C2200.54 332.076 2191.85 351.397 2174.48 366.438C2157.36 381.479 2134.54 389 2106.01 389H2012.65ZM2042.22 362.159H2109.12C2129.35 362.159 2144.78 357.491 2155.42 348.155C2166.05 338.819 2171.36 326.371 2171.36 310.811C2171.36 295.251 2166.05 282.803 2155.42 273.467C2145.04 263.872 2129.74 259.074 2109.51 259.074H2042.22V362.159ZM2042.22 233.4H2101.73C2117.81 233.4 2130.39 229.121 2139.47 220.563C2148.54 211.746 2153.08 200.465 2153.08 186.72C2153.08 173.753 2148.41 162.732 2139.08 153.655C2130 144.319 2117.55 139.651 2101.73 139.651H2042.22V233.4ZM2280.26 389V112.81H2309.82V360.992H2447.92V389H2280.26ZM2516.33 389V112.81H2673.88V140.818H2545.9V233.011H2650.54V261.019H2545.9V360.992H2673.88V389H2516.33Z" fill="#FFFFFF"/>
<path d="M2932 213V165H2752V213H2932Z" fill="url(#paint0_linear_1668_2)"/>
<path d="M2869 96H2821V276H2869V96Z" fill="url(#paint1_linear_1668_2)"/>
<defs>
<linearGradient id="paint0_linear_1668_2" x1="1466.31" y1="393.668" x2="1466.31" y2="96" gradientUnits="userSpaceOnUse">
<stop stop-color="#2CA6FF"/>
<stop offset="1" stop-color="#121660"/>
</linearGradient>
<linearGradient id="paint1_linear_1668_2" x1="2845" y1="96" x2="2845" y2="276" gradientUnits="userSpaceOnUse">
<stop stop-color="#252EC6"/>
<stop offset="1" stop-color="#1A2087"/>
</linearGradient>
</defs>
</svg>
